<mxfile host="app.diagrams.net" modified="2020-09-30T03:31:56.734Z" agent="5.0 (X11)" etag="OiqPivhbf_BIxLJHB2PA" version="13.7.6" type="github">
  <diagram id="FviH7WdWDiOahbcqMCGG" name="Página-1">
    <mxGraphModel dx="868" dy="458" grid="1" gridSize="10" guides="1" tooltips="1" connect="1" arrows="1" fold="1" page="1" pageScale="1" pageWidth="827" pageHeight="1169" math="0" shadow="0">
      <root>
        <mxCell id="0" />
        <mxCell id="1" parent="0" />
        <mxCell id="L3_cZmDm4OvMKgg9Aqrz-6" style="edgeStyle=orthogonalEdgeStyle;rounded=0;orthogonalLoop=1;jettySize=auto;html=1;entryX=0.5;entryY=0;entryDx=0;entryDy=0;" edge="1" parent="1" source="L3_cZmDm4OvMKgg9Aqrz-1" target="L3_cZmDm4OvMKgg9Aqrz-2">
          <mxGeometry relative="1" as="geometry" />
        </mxCell>
        <mxCell id="L3_cZmDm4OvMKgg9Aqrz-1" value="Inicio" style="strokeWidth=2;html=1;shape=mxgraph.flowchart.terminator;whiteSpace=wrap;" vertex="1" parent="1">
          <mxGeometry x="85" y="40" width="100" height="50" as="geometry" />
        </mxCell>
        <mxCell id="L3_cZmDm4OvMKgg9Aqrz-7" style="edgeStyle=orthogonalEdgeStyle;rounded=0;orthogonalLoop=1;jettySize=auto;html=1;exitX=1;exitY=0.5;exitDx=0;exitDy=0;entryX=0;entryY=0.5;entryDx=0;entryDy=0;" edge="1" parent="1" source="L3_cZmDm4OvMKgg9Aqrz-2" target="L3_cZmDm4OvMKgg9Aqrz-3">
          <mxGeometry relative="1" as="geometry" />
        </mxCell>
        <mxCell id="L3_cZmDm4OvMKgg9Aqrz-8" style="edgeStyle=orthogonalEdgeStyle;rounded=0;orthogonalLoop=1;jettySize=auto;html=1;entryX=0;entryY=0.5;entryDx=0;entryDy=0;" edge="1" parent="1" source="L3_cZmDm4OvMKgg9Aqrz-2" target="L3_cZmDm4OvMKgg9Aqrz-4">
          <mxGeometry relative="1" as="geometry" />
        </mxCell>
        <mxCell id="L3_cZmDm4OvMKgg9Aqrz-2" value="Pantalla de inicio" style="rounded=1;whiteSpace=wrap;html=1;absoluteArcSize=1;arcSize=14;strokeWidth=2;" vertex="1" parent="1">
          <mxGeometry x="70" y="160" width="130" height="60" as="geometry" />
        </mxCell>
        <mxCell id="L3_cZmDm4OvMKgg9Aqrz-11" style="edgeStyle=orthogonalEdgeStyle;rounded=0;orthogonalLoop=1;jettySize=auto;html=1;exitX=1;exitY=0.5;exitDx=0;exitDy=0;" edge="1" parent="1" source="L3_cZmDm4OvMKgg9Aqrz-3" target="L3_cZmDm4OvMKgg9Aqrz-10">
          <mxGeometry relative="1" as="geometry" />
        </mxCell>
        <mxCell id="L3_cZmDm4OvMKgg9Aqrz-3" value="Registrar Usuario" style="rounded=1;whiteSpace=wrap;html=1;absoluteArcSize=1;arcSize=14;strokeWidth=2;" vertex="1" parent="1">
          <mxGeometry x="280" y="160" width="130" height="60" as="geometry" />
        </mxCell>
        <mxCell id="L3_cZmDm4OvMKgg9Aqrz-4" value="Iniciar Sesión Usuario" style="rounded=1;whiteSpace=wrap;html=1;absoluteArcSize=1;arcSize=14;strokeWidth=2;" vertex="1" parent="1">
          <mxGeometry x="70" y="360" width="130" height="60" as="geometry" />
        </mxCell>
        <mxCell id="L3_cZmDm4OvMKgg9Aqrz-13" style="edgeStyle=orthogonalEdgeStyle;rounded=0;orthogonalLoop=1;jettySize=auto;html=1;exitX=1;exitY=0.5;exitDx=0;exitDy=0;exitPerimeter=0;entryX=0.5;entryY=1;entryDx=0;entryDy=0;entryPerimeter=0;" edge="1" parent="1" source="L3_cZmDm4OvMKgg9Aqrz-5" target="L3_cZmDm4OvMKgg9Aqrz-9">
          <mxGeometry relative="1" as="geometry" />
        </mxCell>
        <mxCell id="L3_cZmDm4OvMKgg9Aqrz-14" style="edgeStyle=orthogonalEdgeStyle;rounded=0;orthogonalLoop=1;jettySize=auto;html=1;" edge="1" parent="1" source="L3_cZmDm4OvMKgg9Aqrz-5" target="L3_cZmDm4OvMKgg9Aqrz-4">
          <mxGeometry relative="1" as="geometry" />
        </mxCell>
        <mxCell id="L3_cZmDm4OvMKgg9Aqrz-5" value="" style="strokeWidth=2;html=1;shape=mxgraph.flowchart.decision;whiteSpace=wrap;" vertex="1" parent="1">
          <mxGeometry x="475" y="280" width="100" height="100" as="geometry" />
        </mxCell>
        <mxCell id="L3_cZmDm4OvMKgg9Aqrz-9" value="" style="strokeWidth=2;html=1;shape=mxgraph.flowchart.database;whiteSpace=wrap;" vertex="1" parent="1">
          <mxGeometry x="690" y="160" width="60" height="60" as="geometry" />
        </mxCell>
        <mxCell id="L3_cZmDm4OvMKgg9Aqrz-12" style="edgeStyle=orthogonalEdgeStyle;rounded=0;orthogonalLoop=1;jettySize=auto;html=1;exitX=0.5;exitY=1;exitDx=0;exitDy=0;" edge="1" parent="1" source="L3_cZmDm4OvMKgg9Aqrz-10" target="L3_cZmDm4OvMKgg9Aqrz-5">
          <mxGeometry relative="1" as="geometry" />
        </mxCell>
        <mxCell id="L3_cZmDm4OvMKgg9Aqrz-17" style="edgeStyle=orthogonalEdgeStyle;rounded=0;orthogonalLoop=1;jettySize=auto;html=1;exitX=1;exitY=0.5;exitDx=0;exitDy=0;entryX=0;entryY=0.5;entryDx=0;entryDy=0;entryPerimeter=0;" edge="1" parent="1" source="L3_cZmDm4OvMKgg9Aqrz-10" target="L3_cZmDm4OvMKgg9Aqrz-9">
          <mxGeometry relative="1" as="geometry" />
        </mxCell>
        <mxCell id="L3_cZmDm4OvMKgg9Aqrz-10" value="Verifica si existe registro" style="rounded=1;whiteSpace=wrap;html=1;absoluteArcSize=1;arcSize=14;strokeWidth=2;" vertex="1" parent="1">
          <mxGeometry x="460" y="40" width="130" height="60" as="geometry" />
        </mxCell>
        <mxCell id="L3_cZmDm4OvMKgg9Aqrz-15" value="No" style="text;html=1;align=center;verticalAlign=middle;resizable=0;points=[];autosize=1;" vertex="1" parent="1">
          <mxGeometry x="575" y="310" width="30" height="20" as="geometry" />
        </mxCell>
        <mxCell id="L3_cZmDm4OvMKgg9Aqrz-16" value="Si" style="text;html=1;align=center;verticalAlign=middle;resizable=0;points=[];autosize=1;" vertex="1" parent="1">
          <mxGeometry x="455" y="340" width="30" height="20" as="geometry" />
        </mxCell>
      </root>
    </mxGraphModel>
  </diagram>
</mxfile>
